<?xml version="1.0" standalone="no"?>
<!DOCTYPE svg PUBLIC "-//W3C//DTD SVG 20010904//EN"
 "http://www.w3.org/TR/2001/REC-SVG-20010904/DTD/svg10.dtd">
<svg version="1.0" xmlns="http://www.w3.org/2000/svg"
 width="547.000000pt" height="547.000000pt" viewBox="0 0 547.000000 547.000000"
 preserveAspectRatio="xMidYMid meet">
<metadata>
Created by potrace 1.14, written by Peter Selinger 2001-2017
</metadata>
<g transform="translate(0.000000,547.000000) scale(0.100000,-0.100000)"
fill="#000000" stroke="none">
<path d="M2055 4512 c-2 -3 -19 -6 -37 -7 -18 -2 -33 -4 -33 -5 0 -1 -7 -3
-15 -5 -37 -7 -133 -60 -168 -92 -20 -19 -54 -49 -74 -67 -21 -18 -35 -36 -31
-40 3 -3 2 -6 -4 -6 -14 0 -83 -66 -83 -80 0 -6 -3 -10 -7 -8 -5 2 -20 -9 -35
-24 -15 -15 -24 -28 -20 -29 4 0 -3 -4 -16 -10 -13 -5 -20 -13 -17 -19 3 -5 2
-10 -3 -10 -13 0 -177 -163 -174 -172 1 -5 -2 -8 -7 -8 -11 0 -161 -150 -161
-161 0 -5 -4 -9 -10 -9 -14 0 -70 -57 -70 -71 0 -7 -2 -10 -5 -7 -7 7 -115
-99 -115 -114 0 -6 -3 -9 -6 -5 -8 7 -34 -17 -34 -32 0 -6 -4 -11 -10 -11 -5
0 -117 -108 -249 -239 -214 -214 -280 -289 -273 -313 1 -5 -2 -8 -7 -8 -13 0
-41 -97 -47 -162 -3 -28 -7 -55 -10 -59 -2 -4 0 -10 6 -14 7 -4 7 -12 0 -26
-7 -13 -7 -19 0 -19 5 0 10 -14 10 -31 0 -31 38 -131 52 -137 4 -2 8 -10 8
-17 0 -8 11 -25 25 -39 14 -14 25 -28 25 -32 0 -7 80 -84 88 -84 7 0 42 -42
42 -52 0 -4 4 -8 10 -8 12 0 59 -47 53 -53 -2 -3 4 -8 15 -11 10 -4 25 -17 32
-31 7 -13 16 -23 19 -21 3 2 17 -11 31 -29 14 -19 35 -39 47 -46 13 -7 21 -14
19 -16 -6 -6 44 -53 56 -53 6 0 9 -2 6 -5 -7 -8 279 -295 294 -295 6 0 9 -3 5
-6 -7 -7 85 -99 96 -96 4 1 7 -2 7 -6 0 -12 183 -197 193 -194 4 1 7 -3 7 -8
0 -13 279 -290 292 -290 5 0 7 -4 3 -9 -3 -5 4 -12 15 -16 11 -3 20 -10 20
-15 0 -11 102 -68 154 -87 68 -24 182 -28 256 -9 66 17 140 49 174 76 54 42
106 97 117 122 6 15 14 28 18 28 6 0 17 22 42 85 17 42 21 64 23 112 0 24 4
43 8 43 3 0 5 8 3 18 -2 9 -4 17 -5 17 -1 0 -3 20 -5 44 -2 23 -9 49 -15 55
-5 7 -7 16 -4 19 4 4 -1 18 -10 32 -9 14 -14 25 -11 25 4 0 -3 14 -15 30 -12
17 -19 30 -17 30 10 0 -53 68 -230 245 -100 101 -179 186 -176 189 4 3 -1 6
-9 6 -9 0 -18 7 -22 15 -3 8 -13 15 -21 15 -9 0 -14 4 -11 9 7 11 -19 33 -28
23 -4 -4 -6 -2 -4 4 3 11 -267 284 -282 284 -6 0 -9 4 -8 8 4 10 -74 88 -84
84 -5 -1 -8 2 -8 8 0 14 -57 70 -64 63 -3 -4 -6 1 -6 11 0 9 -4 14 -10 11 -5
-3 -10 -1 -10 6 0 6 -8 18 -17 24 -17 13 -17 14 0 32 9 11 14 23 10 26 -3 4
-1 7 5 7 14 0 78 62 74 72 -1 4 2 7 7 6 4 -2 27 16 50 40 22 23 45 42 51 42 5
0 9 3 7 8 -1 4 27 35 62 70 35 34 60 62 55 63 -5 0 1 4 14 10 15 5 21 13 16
21 -4 7 -3 10 1 5 11 -9 46 23 39 35 -3 4 -2 7 3 6 13 -4 63 44 56 55 -3 6 -2
7 4 4 10 -7 59 43 55 55 -1 5 2 7 6 5 4 -1 22 13 39 31 18 17 37 32 43 32 5 0
9 3 7 8 -3 9 46 58 55 55 5 -2 8 2 8 7 0 13 37 50 50 50 5 0 9 3 8 8 -1 4 52
61 117 128 120 120 151 157 144 168 -2 3 5 12 16 20 11 9 16 16 12 16 -5 0 -1
7 8 16 9 9 14 22 11 30 -3 7 -1 14 5 16 9 3 16 27 24 83 2 17 6 41 9 54 3 13
1 33 -5 43 -9 16 -8 19 2 13 8 -6 10 -4 3 6 -5 8 -10 25 -11 39 -5 43 -34 130
-44 130 -5 0 -9 8 -9 18 0 9 -12 31 -27 47 -16 16 -26 30 -23 30 3 1 -7 13
-21 27 -15 15 -30 24 -33 21 -3 -4 -6 0 -6 8 0 29 -150 106 -221 113 -15 2
-32 6 -38 10 -6 4 -11 1 -11 -6 0 -8 -3 -9 -8 -3 -7 10 -88 16 -97 7z"/>
<path d="M3400 4503 c-14 -7 -33 -13 -42 -13 -10 0 -18 -5 -18 -12 0 -6 -3 -8
-6 -5 -4 4 -20 -3 -35 -14 -16 -11 -29 -18 -29 -15 0 6 -12 -3 -75 -62 -22
-20 -43 -36 -47 -35 -4 2 -5 -4 -2 -12 4 -8 -1 -17 -10 -21 -9 -3 -13 -10 -10
-15 3 -5 1 -9 -5 -9 -9 0 -21 -26 -20 -44 0 -5 -4 -12 -11 -16 -6 -4 -12 -17
-13 -28 -1 -12 -4 -22 -8 -22 -12 0 -27 -106 -24 -170 3 -76 19 -138 45 -186
11 -19 16 -34 12 -34 -4 -1 3 -9 15 -19 12 -10 19 -21 16 -25 -4 -3 -1 -6 5
-6 7 0 12 -5 12 -11 0 -5 29 -39 64 -74 34 -36 61 -67 58 -70 -3 -3 0 -5 6 -5
6 0 168 -156 360 -347 410 -408 478 -473 488 -464 4 3 4 -2 1 -12 -4 -10 -7
-24 -7 -29 0 -6 -2 -9 -5 -6 -7 7 -125 -112 -125 -125 0 -6 -2 -8 -5 -5 -7 7
-175 -160 -175 -173 0 -5 -7 -9 -16 -9 -8 0 -12 -4 -9 -10 3 -5 -1 -10 -9 -10
-8 0 -17 -9 -21 -20 -3 -11 -9 -19 -13 -18 -8 3 -81 -70 -76 -75 2 -2 -6 -9
-19 -16 -12 -6 -31 -25 -42 -41 -11 -16 -21 -27 -23 -26 -4 5 -396 -390 -424
-426 -13 -17 -31 -39 -40 -48 -9 -10 -13 -21 -10 -25 4 -4 0 -12 -8 -18 -8 -7
-17 -19 -19 -27 -2 -8 -10 -40 -18 -70 -8 -30 -15 -82 -16 -115 -1 -68 21
-185 35 -185 5 0 7 -4 3 -9 -3 -5 0 -15 7 -23 7 -7 14 -19 16 -27 1 -7 9 -19
17 -27 7 -8 17 -23 20 -34 3 -11 13 -20 21 -20 8 0 14 -4 14 -10 0 -13 37 -50
50 -50 6 0 10 -4 10 -8 0 -8 104 -63 145 -77 66 -23 246 -27 253 -7 3 9 9 9
23 2 10 -6 19 -7 19 -2 0 4 21 17 46 27 26 11 52 25 59 32 7 7 18 14 25 15 17
4 115 99 113 109 -2 5 0 8 5 8 17 -3 33 2 29 9 -4 9 70 81 78 74 3 -3 5 2 5
12 0 11 4 14 12 10 8 -5 9 -2 5 10 -4 10 -3 15 3 11 5 -3 15 3 22 15 7 11 19
20 27 20 8 0 12 3 9 6 -7 7 151 164 166 164 6 0 4 5 -4 10 -11 7 -12 10 -2 10
7 0 135 122 284 270 148 149 275 270 281 270 6 0 8 3 5 6 -7 6 39 54 52 54 6
0 10 4 10 9 0 5 16 25 35 44 19 19 35 33 35 31 0 -3 15 12 32 33 18 21 37 40
41 42 4 1 13 9 20 16 7 8 45 48 85 90 39 42 72 83 72 91 0 8 4 14 9 14 7 0 19
28 19 47 0 3 5 9 11 12 6 4 12 19 13 34 1 15 6 27 11 27 4 0 5 5 2 10 -4 6 -3
16 2 23 17 23 5 192 -16 242 -24 57 -56 116 -70 133 -9 10 -21 27 -28 38 -6
10 -17 17 -25 16 -7 -2 -10 -1 -6 3 4 4 -117 131 -268 282 -151 151 -274 279
-274 283 0 5 -9 12 -20 15 -11 3 -20 13 -20 21 0 8 -4 12 -10 9 -5 -3 -10 -2
-10 2 0 13 -88 102 -95 95 -3 -3 -5 2 -5 11 0 10 -6 17 -14 17 -8 0 -18 9 -21
20 -3 11 -13 20 -21 20 -8 0 -13 4 -9 9 3 5 -3 12 -12 15 -10 4 -29 22 -43 40
-14 19 -28 32 -32 29 -5 -2 -8 3 -8 11 0 9 -6 16 -14 16 -8 0 -18 9 -21 20 -3
11 -12 20 -20 20 -8 0 -17 9 -20 20 -3 11 -12 20 -18 20 -7 0 -21 14 -32 30
-11 17 -28 33 -37 36 -10 3 -18 12 -18 20 0 8 -4 12 -10 9 -5 -3 -10 1 -10 10
0 9 -4 13 -10 10 -5 -3 -10 -2 -10 3 0 5 -43 51 -96 103 -114 112 -110 108
-154 139 -19 13 -37 27 -40 30 -7 8 -68 32 -76 30 -4 -1 -10 3 -13 9 -4 5 -26
12 -49 13 -23 2 -42 5 -42 8 0 3 -29 6 -65 6 -36 0 -65 -4 -65 -8 0 -4 -10 -4
-22 1 -15 5 -32 3 -48 -6z"/>
</g>
</svg>
